<svg id="Layer_1" data-name="Layer 1" xmlns="http://www.w3.org/2000/svg" viewBox="0 0 507.27 137.33"><title>logo</title><path d="M68,144.13a80.09,80.09,0,0,1-20.53-7A68.9,68.9,0,0,1,67.66,8.39a82.83,82.83,0,0,1,23.69,0,69.67,69.67,0,0,1,39.49,22A68.69,68.69,0,0,1,148,82.53c-2.57,30.7-26.36,56.37-57.11,61.6a89.28,89.28,0,0,1-23,0Zm24.19-3.7a65.47,65.47,0,0,0,43.39-98.07C125.85,26.46,110.16,15.6,91.35,11.8c-5.77-1.14-18-1.14-23.79,0A65.08,65.08,0,0,0,34.15,29.17a64,64,0,0,0-16.73,26.5,55.15,55.15,0,0,0-3.11,14.61c-1.92,18.81,5.23,38.45,19,52.17,15.79,15.75,36.77,22.11,58.83,18Z" transform="translate(-10.72 -7.54)" fill="#d0af88"/><path d="M75.26,138.35a57.31,57.31,0,0,1-.1-6.07c.1-4.39.3-5.38.89-5.38s.74,1.09.89,6.07c.1,5.18,0,6-.64,6a1.18,1.18,0,0,1-1-.64Z" transform="translate(-10.72 -7.54)" fill="#d0af88"/><path d="M78.22,137.76c-.39-1.53,0-10,.44-10.41.15-.2.64-.2,1.09,0s.74,1.33.74,6c0,5.33,0,5.68-1,5.68C78.87,139,78.42,138.55,78.22,137.76Z" transform="translate(-10.72 -7.54)" fill="#d0af88"/><path d="M81.48,132.82c0-5.68.1-6.22.89-6.07s.84.84.84,6.07-.1,5.92-.84,6.07S81.48,138.5,81.48,132.82Z" transform="translate(-10.72 -7.54)" fill="#d0af88"/><path d="M72.1,132.58c0-5.58,0-5.92,1-5.92s1,.35,1,5.92,0,5.92-1,5.92S72.1,138.15,72.1,132.58Z" transform="translate(-10.72 -7.54)" fill="#d0af88"/><path d="M84.79,138.15c-.2-.15-.35-2.81-.35-5.92,0-5.23,0-5.58,1-5.58s1,.35,1,5.92c0,4.59-.15,5.92-.64,5.92A1.39,1.39,0,0,1,84.79,138.15Z" transform="translate(-10.72 -7.54)" fill="#d0af88"/><path d="M63.22,136.72c0-1.68,2.91-3.65,5.53-3.7,1.48,0,1.53,0,.64-.59-2.22-1.38-3.7-3.26-3.7-4.74,0-1.78,0-1.78,1.92-.84,3.9,2,4.24,7.5.54,9.43-1.38.69-4.94,1-4.94.44Z" transform="translate(-10.72 -7.54)" fill="#d0af88"/><path d="M90.27,136.23c-3.65-2-3-7.21,1.09-9.33,1.68-.89,2-.54,1.38,1.63a6,6,0,0,1-2.47,3.06l-2,1.48h1.58c2.52,0,5.48,2,5.48,3.65C95.3,137.31,91.55,137,90.27,136.23Z" transform="translate(-10.72 -7.54)" fill="#d0af88"/><path d="M56.31,134.11a6.18,6.18,0,0,1,4.59-2.86l1.83-.3L61,129.42A5.86,5.86,0,0,1,59,126l-.35-1.92,2,1a5.36,5.36,0,0,1,3.11,5.08c0,3.06-2.22,4.89-5.92,4.89-1.83,0-2-.1-1.48-.94Z" transform="translate(-10.72 -7.54)" fill="#d0af88"/><path d="M97.33,134.35c-3.7-2.07-3.16-7.3,1-9.43,1.38-.74,1.43-.74,1.43.44a5.29,5.29,0,0,1-2.52,4.49l-1.43,1,2.07.35c1.88.35,4.84,2.42,4.84,3.46C102.71,135.29,98.61,135.09,97.33,134.35Z" transform="translate(-10.72 -7.54)" fill="#d0af88"/><path d="M50.78,131.74c-.69-.2-.79-.39-.39-1.18.69-1.28,3.06-2.42,5-2.42h1.63l-1.58-1A4.53,4.53,0,0,1,52.85,123c0-1.73.74-1.63,2.76.39,2.22,2.22,2.32,4.69.25,6.76a4.94,4.94,0,0,1-2.17,1.43,6.68,6.68,0,0,0-1.43.2,3,3,0,0,1-1.48,0Z" transform="translate(-10.72 -7.54)" fill="#d0af88"/><path d="M104.83,131.54c-1.88-.54-3.6-2.57-3.6-4.24a6.44,6.44,0,0,1,2.67-4.79c1.92-1.23,2.42-1,2,.84a5.07,5.07,0,0,1-2.86,3.8l-1.38.84,2.32.3c2.71.3,5.48,2.47,4.15,3.31-.89.54-1.18.54-3.31,0Z" transform="translate(-10.72 -7.54)" fill="#d0af88"/><path d="M43.87,127.79c-2.52-.64.69-2.76,3.8-2.52a6.94,6.94,0,0,0,2.22,0,10.67,10.67,0,0,0-1.23-1.68c-2-2.42-1.38-6,.74-4.1a5.24,5.24,0,0,1,1.28,5.87C49.7,127.74,47.13,128.68,43.87,127.79Z" transform="translate(-10.72 -7.54)" fill="#d0af88"/><path d="M108.92,126.85a4.14,4.14,0,0,1-1.28-3.26c0-2.12,1.53-4.84,2.76-4.84s.89,3.36-.49,5.13l-1.14,1.53,2.27-.15c1.78-.15,2.57,0,3.5.84s1.14,1.09.49,1.53a7.07,7.07,0,0,1-2.76.49,4.06,4.06,0,0,1-3.36-1.28Z" transform="translate(-10.72 -7.54)" fill="#d0af88"/><path d="M74.57,124.63A50.52,50.52,0,0,1,57.1,119.4,48.66,48.66,0,0,1,32.67,63c4.64-16.88,19.05-30.4,36.62-34.4,5.38-1.23,15.7-1.14,21.08.2,37.51,9.33,50.49,54.59,23.49,81.83-7.45,7.5-18.31,12.88-28,13.82-6,.59-7.11.59-11.25.2Zm40.67-19a52.4,52.4,0,0,0,9.53-19.3c1.23-5.18,1.14-15.5-.25-21.08A45,45,0,0,0,113,44.42a46,46,0,0,0-67.08.2,46.17,46.17,0,0,0-2,61.2l1.68,2.07h67.92Z" transform="translate(-10.72 -7.54)" fill="#d0af88"/><path d="M64.21,105.68a2.69,2.69,0,0,1,1.83-.74A3.18,3.18,0,0,0,68,104.2a4.76,4.76,0,0,1,2.67-.74c4.29,0,5.48-1.48,6.52-8a37.75,37.75,0,0,0,.15-11.55c-.25-2.12-.2-3.31.2-3.8s.39-.74-.2-.94a.79.79,0,0,1-.44-1,1.31,1.31,0,0,0-.54-1.33c-1-.89-.94-2.67.49-6.66,1.58-4.54,1.53-5.77-.39-9.62-2.76-5.58-6-6.56-14.76-4.44a36.83,36.83,0,0,1-6.66,1,9.35,9.35,0,0,0-2.62.2c0,.69,10.22,20.93,10.81,21.37s.64.59.1.64a3.17,3.17,0,0,0-1.63,1.23c-2.42,3.06-9.08,4.69-14,3.41-2.91-.74-6-2.62-6.52-3.95a1.06,1.06,0,0,0-.94-.69c-.39,0-.69-.2-.69-.49a.54.54,0,0,1,.54-.49c.3,0,2.86-4.79,5.68-10.61l5.18-10.61L49.3,55.58,47.67,54.1l1.38.49c2.86,1,5.82.59,11.45-1.78,6.86-2.81,9.53-3.16,13-1.68a11.16,11.16,0,0,1,3.11,1.78,1.65,1.65,0,0,0,1,.69c.74,0,.49-2.32-.3-3-1.43-1.18-1.38-2.52.3-6.22C79.16,41,80,40,80,41.46a12.29,12.29,0,0,0,1.14,2.81c1.78,3.36,2,4.59.84,6-1.58,2-1.14,4.54.44,2.62a11.16,11.16,0,0,1,3.11-1.78C88.74,49.75,91.8,50,96,51.88c6.86,3.06,11.25,3.95,13.62,2.71,1.38-.79,1.18.25-.3,1.38l-1.28,1,5.08,10.66c2.81,5.82,5.38,10.66,5.73,10.66.69,0,.84,1,.1,1a5.1,5.1,0,0,0-1.92,1.63c-2.67,3-9.28,4.29-14.61,2.81a11,11,0,0,1-4.34-2.57,9.17,9.17,0,0,0-2.47-1.88c-.3,0-.15-.39.3-.84.74-.74,10.71-20.48,10.71-21.13a6.4,6.4,0,0,0-2.52-.25,42.42,42.42,0,0,1-7-1c-7.3-1.73-11.9-.84-13.57,2.57-3.11,6.32-3.11,6.22-1.38,11.3,1.43,4.2,1.53,6,.49,6.91a1.31,1.31,0,0,0-.54,1.33.79.79,0,0,1-.44,1c-.49.15-.59.49-.35.84.89,1.14,1,2.91.3,5.63-.79,2.91-.74,3.36.44,10.61.89,5.18,1.68,6.61,4,7,.94.15,2.52.35,3.46.49s1.73.49,1.73.74.64.49,1.43.49a3,3,0,0,1,2,.74c.54.64-1.23.74-15.3.74s-15.84-.1-15.3-.74Zm-12.83-37A90.69,90.69,0,0,0,51.13,59c-.3,0-3.8,7-7.21,14.21l-2.37,5h9.82V68.66Zm5.58-.1c-2.57-5.38-4.79-9.87-4.89-10s-.2,4.24-.2,9.72v10h9.77Zm50.2,0c0-5.68-.2-9.53-.44-9.28s-2.42,4.64-4.89,9.77l-4.49,9.23h9.82Zm9.92,8.84c-.25-.44-2.37-4.79-4.64-9.62S108.09,59,107.94,59a82.85,82.85,0,0,0-.3,9.62v9.62h4.94C117.17,78.28,117.51,78.23,117.07,77.39Z" transform="translate(-10.72 -7.54)" fill="#d0af88"/><path d="M38.2,123.1c-3.36-1.63,1.92-3.16,5.53-1.63.84.39.89.35.35-.35A6.36,6.36,0,0,1,43,116c.64-1.58,1.28-1.48,2.22.3A5.28,5.28,0,0,1,44,123c-1,.74-4.34.79-5.82,0Z" transform="translate(-10.72 -7.54)" fill="#d0af88"/><path d="M114,122.41a5.48,5.48,0,0,1-.15-6.71l1-1.33.59,1.23a4.18,4.18,0,0,1-.2,4.34c-1,1.83-.94,1.83.54,1.28a6.06,6.06,0,0,1,5.08.2l1.23.69-1.58.79c-2.37,1.23-5.13,1-6.56-.49Z" transform="translate(-10.72 -7.54)" fill="#d0af88"/><path d="M33.61,118.41c-2.22-1.14-2.17-1.78.15-2.32a4.47,4.47,0,0,1,3.55.35,5.08,5.08,0,0,0,1.73.64,12.56,12.56,0,0,0-.69-1.83c-.69-1.78-.25-4.89.69-4.89s2.12,3.26,1.78,5.08c-.59,3.26-3.95,4.64-7.21,3Z" transform="translate(-10.72 -7.54)" fill="#d0af88"/><path d="M120.13,118.66a5.55,5.55,0,0,1-1.88-2.17,4.09,4.09,0,0,1-.2-3.65c.94-3.11,1.73-3.41,2.47-1a3.9,3.9,0,0,1-.2,3.7c-.94,2-1,2,1.09.94,1.63-.79,4.64-.64,5.23.3.39.69-2.71,2.47-4.2,2.42a6.14,6.14,0,0,1-2.32-.54Z" transform="translate(-10.72 -7.54)" fill="#d0af88"/><path d="M28.57,112.39,27,111l1.88-.35a5.53,5.53,0,0,1,3.8.59,12,12,0,0,0,1.92.89s-.2-.79-.49-1.73a4.22,4.22,0,0,1,.3-3.36c1-2.07,1.48-2.07,2.17.1,1.73,5.23-3.85,8.93-8,5.23Z" transform="translate(-10.72 -7.54)" fill="#d0af88"/><path d="M123.19,112.59a5.86,5.86,0,0,1-.59-6.42c.64-.84.74-.84,1.48.3a4.55,4.55,0,0,1,.35,4.59l-.44,1.23,2-1a5.13,5.13,0,0,1,3.65-.74c2.17.44,2.17.94,0,2.22S124.72,114.12,123.19,112.59Z" transform="translate(-10.72 -7.54)" fill="#d0af88"/><path d="M27.19,107.85c-1.92-.79-3.6-2.52-2.86-3,1.14-.69,2.71-.39,4.59.89L30.74,107l-.3-1.73c-.49-2.71,1.53-6.12,2.37-3.95,1.53,3.95-1.92,8-5.63,6.56Z" transform="translate(-10.72 -7.54)" fill="#d0af88"/><path d="M128.08,107.7a4.89,4.89,0,0,1-2.47-5.48c.39-2,1-2.17,2.07-.49a4.38,4.38,0,0,1,.54,3.16l-.25,1.92,1.73-1.18c1.78-1.18,3.36-1.48,4.49-.79.44.3.25.74-.74,1.68-1.78,1.68-3.46,2-5.38,1.18Z" transform="translate(-10.72 -7.54)" fill="#d0af88"/><path d="M23.88,101.53a7.56,7.56,0,0,1-2.12-2c-.49-.94-.39-1,1.18-1A4.53,4.53,0,0,1,26.15,100l1.53,1.43-.1-1.92a4,4,0,0,1,.84-2.91c1.33-1.48,1.73-1.23,1.73,1.14,0,3.7-3.26,5.68-6.27,3.85Z" transform="translate(-10.72 -7.54)" fill="#d0af88"/><path d="M131,102a5.11,5.11,0,0,1-1.88-1.58c-.89-1.23-1.09-4.59-.3-5.08s2.52,2.81,2.32,4.64c-.15,1.58-.15,1.63.64.69A5.39,5.39,0,0,1,136,98.52c1.63,0,1.63.49,0,2.07S132.52,102.62,131,102Z" transform="translate(-10.72 -7.54)" fill="#d0af88"/><path d="M22.75,95.85a5.25,5.25,0,0,1-2.62-2.12l-.94-1.63h1.33a4.82,4.82,0,0,1,3,1.68l1.68,1.68V94.08c0-1.68,2-4.29,2.91-3.75s.2,3.21-1,4.59-2.32,1.63-4.34.94Z" transform="translate(-10.72 -7.54)" fill="#d0af88"/><path d="M133,96.05a4.63,4.63,0,0,1-2.52-4.69l.15-1.83L132,90.87a4.05,4.05,0,0,1,1.33,3.06v1.68L135,93.88a4.41,4.41,0,0,1,3-1.78c1.63,0,1.63.59,0,2.42s-3.31,2.22-4.94,1.53Z" transform="translate(-10.72 -7.54)" fill="#d0af88"/><path d="M20.13,89.59a8.1,8.1,0,0,1-2.32-3.65c0-.15.44-.25.94-.25,1.23,0,4,2.32,4,3.36,0,.49.3,0,.64-.94.54-1.83,2.07-3.9,2.86-3.9,1.33,0-.35,5-1.83,5.63A6.21,6.21,0,0,1,20.13,89.59Z" transform="translate(-10.72 -7.54)" fill="#d0af88"/><path d="M133.36,88.94c-1.09-1.18-2-4.74-1.23-4.74,1.28,0,2.67,1.68,3,3.5l.35,2,.89-1.48a4.67,4.67,0,0,1,3.6-2.52c1.23,0,.94,1.43-.64,3C137.4,90.52,134.94,90.67,133.36,88.94Z" transform="translate(-10.72 -7.54)" fill="#d0af88"/><path d="M20,83.51a4.94,4.94,0,0,1-2.71-4c0-1.14,1.92-.25,3.46,1.68,1.09,1.28,1.48,1.53,1.48.89,0-1.09,2.12-3.31,3.16-3.31.59,0,.64.3.25,1.58-.84,3-3.11,4.24-5.63,3.16Z" transform="translate(-10.72 -7.54)" fill="#d0af88"/><path d="M135.48,83.71a5.11,5.11,0,0,1-1.88-1.58c-.84-1.18-1.09-3.36-.35-3.36s3,2.07,3,2.91c0,1.53.64,1.58,1.28.1a5.51,5.51,0,0,1,2.12-2.27c1.53-.74,1.53-.74,1.53.44C141.2,82.53,137.85,84.7,135.48,83.71Z" transform="translate(-10.72 -7.54)" fill="#d0af88"/><path d="M19.24,76.36c-1.48-1.53-1.92-3.5-.79-3.5.84,0,2.12,1.38,2.71,3L21.66,77l.49-1.23c.89-2.22,3.55-3.65,3.55-1.92,0,1.33-2.62,3.9-3.95,3.9a4.76,4.76,0,0,1-2.52-1.43Z" transform="translate(-10.72 -7.54)" fill="#d0af88"/><path d="M135.43,77.3c-1.09-.44-2.81-3.16-2.52-3.9s2.42.44,3.26,1.88l.84,1.48.74-1.58c.74-1.53,3.06-3.21,3.36-2.37.35,1-1.43,4-2.62,4.49C137,77.89,136.86,77.89,135.43,77.3Z" transform="translate(-10.72 -7.54)" fill="#d0af88"/><path d="M19.79,70.39c-1-1-1.73-3-1.38-3.95s2.76,1.38,3.11,3l.35,1.48,1.09-1.58a4.23,4.23,0,0,1,2.22-1.78c1-.15,1.09,0,.79,1C25.17,71.17,21.66,72.26,19.79,70.39Z" transform="translate(-10.72 -7.54)" fill="#d0af88"/><path d="M133.6,69.84c-1.53-1.78-1.63-2.42-.39-2.42a3.72,3.72,0,0,1,3,2.22c.44.84.54.79,1.23-.84a5.84,5.84,0,0,1,1.78-2.37c.94-.49,1-.39,1,.89,0,3.85-4.2,5.43-6.61,2.52Z" transform="translate(-10.72 -7.54)" fill="#d0af88"/><path d="M21.22,64.51c-1.33-1.33-2-4-1-4s2.57,2.12,2.57,3.26v1.28l1.43-1.53A4.8,4.8,0,0,1,26.65,62c1,0,1,.1.35,1.38a5.28,5.28,0,0,1-3.8,2.57,5.35,5.35,0,0,1-2-1.43Z" transform="translate(-10.72 -7.54)" fill="#d0af88"/><path d="M134.29,65.6c-1.14-.44-3-2.22-3-3,0-1.09,1.48-.69,3,.79l1.43,1.38.3-1.33c.3-1.43,2-3.36,2.52-2.81s-.25,3.65-.94,4.2a4.15,4.15,0,0,1-3.31.74Z" transform="translate(-10.72 -7.54)" fill="#d0af88"/><path d="M24.38,59.63a3.17,3.17,0,0,1-1.88-1.23c-.84-1.18-1-3.6-.3-4s2,1.78,2,3.46c0,1.33.1,1.38.69.64.84-1.14,3.11-2,3.55-1.33s-1,2.27-2.17,2.52a6.27,6.27,0,0,1-1.92,0Z" transform="translate(-10.72 -7.54)" fill="#d0af88"/><path d="M131.43,59c-2-1.23-2.17-2.62-.2-2.17a4.19,4.19,0,0,1,2.12,1.23c.79.84.84.79,1.14-1a3.45,3.45,0,0,1,1.28-2.47c.89-.49,1-.39,1,1.18C136.76,59,134.1,60.66,131.43,59Z" transform="translate(-10.72 -7.54)" fill="#d0af88"/><path d="M25.56,53.21c-.84-.94-1.14-3.11-.49-3.7s1.63.84,1.63,2.52v1.73l1.18-1.09a3.07,3.07,0,0,1,2.37-.94l1.14.15L30.3,53c-1.38,1.33-3.65,1.43-4.74.2Z" transform="translate(-10.72 -7.54)" fill="#d0af88"/><path d="M128.72,53.21a3.24,3.24,0,0,1-.84-1.23c0-.64,1.73-.35,2.86.44s1.09.69,1.09-.3c0-1.28.84-3,1.48-3s.54,3.31-.3,4.15a3.24,3.24,0,0,1-4.29-.1Z" transform="translate(-10.72 -7.54)" fill="#d0af88"/><path d="M28.27,48.57c-.79-.79-.79-4,0-3.75a2.72,2.72,0,0,1,.74,1.78c.15,1.68.54,1.92,1.43,1a1.79,1.79,0,0,1,1.63-.2c1,.3,1,.35.15,1-1.09.84-3.21.89-4,.1Z" transform="translate(-10.72 -7.54)" fill="#d0af88"/><path d="M126.4,48.42c-.89-1.09.69-1.53,2.12-.59,1,.69,1.09.64,1.09-1,0-2,1-2.67,1.38-1C131.68,48.32,128,50.4,126.4,48.42Z" transform="translate(-10.72 -7.54)" fill="#d0af88"/><path d="M32,43.83a2.83,2.83,0,0,1-.54-3.26c.49-1.28,1.18-.35,1.18,1.58,0,1.38.15,1.63.59,1.18.69-.69,2.86-.79,2.86-.1s-1.63,1.48-2.62,1.48A2.53,2.53,0,0,1,32,43.83Z" transform="translate(-10.72 -7.54)" fill="#d0af88"/><path d="M123.14,44c-.89-.69-.89-.74,0-1.09a3.44,3.44,0,0,1,2.07.2c1,.44,1.14.44.89-.15-.35-1,.3-3.31.84-3,.79.49.59,3.06-.3,3.9s-2.17,1-3.46.1Z" transform="translate(-10.72 -7.54)" fill="#d0af88"/><path d="M36.17,39.49c-1.18-.79-1.53-3.31-.54-3.95s1.38.79.89,2.12c-.39,1-.3,1.14.74.84a3.75,3.75,0,0,1,2.12.2c.79.49.74.59-.49,1C37.16,40.38,37.5,40.43,36.17,39.49Z" transform="translate(-10.72 -7.54)" fill="#d0af88"/><path d="M119.83,39.93c-1.43-.35-.64-1.38,1-1.33,1.28,0,1.43,0,1.23-1.09a4.47,4.47,0,0,1,.15-2c.3-.74.44-.64,1,.59a2.77,2.77,0,0,1,.15,2.47c-.89,1.63-1.53,1.88-3.5,1.38Z" transform="translate(-10.72 -7.54)" fill="#d0af88"/><path d="M40.61,35.79c-.94-.35-1.14-.74-1-2.27.1-1,.44-1.88.84-2s.59.2.44,1.58,0,1.73.49,1.53a3,3,0,0,1,1.73,0c1,.3,1,.35.1,1s-1.09.79-2.62.15Z" transform="translate(-10.72 -7.54)" fill="#d0af88"/><path d="M115.29,35.64c-.89-.64-.89-.69.15-1a3,3,0,0,1,2.07.2c1,.54,1,.49.49-.49a3,3,0,0,1-.2-2.07c.3-1,.35-1,1-.15.94,1.28.89,2-.3,3.21S116.58,36.58,115.29,35.64Z" transform="translate(-10.72 -7.54)" fill="#d0af88"/><path d="M42.49,32.92c0-.74,1.48-2,2.27-2s.89.69-.2,1.63-2.07,1.09-2.07.39Z" transform="translate(-10.72 -7.54)" fill="#d0af88"/><path d="M113.81,32.38c-.49-.54-.74-1.14-.59-1.33.54-.49,2.81.74,2.81,1.58C116,33.66,114.85,33.56,113.81,32.38Z" transform="translate(-10.72 -7.54)" fill="#d0af88"/><path d="M50.09,28.68a1.79,1.79,0,0,0-.79-2.32l-1.14-.89H49.7c1.33,0,1.63-.2,1.92-1.58L52,22.26l.54,1.63c.39,1.33.74,1.58,2,1.58h1.53l-1.14.89a1.79,1.79,0,0,0-.79,2.32c.35,1.38.35,1.38-.79.59s-1.23-.69-2.37,0l-1.23.79.35-1.43Z" transform="translate(-10.72 -7.54)" fill="#d0af88"/><path d="M105.37,28.58c.3-1.23.15-1.68-.79-2.32l-1.09-.79H105c1.33,0,1.58-.2,1.92-1.58l.35-1.63.69,1.63c.49,1.23.94,1.58,2,1.58h1.33l-1.14.89a1.79,1.79,0,0,0-.79,2.32c.35,1.38.35,1.38-.79.59s-1.23-.69-2.37,0l-1.18.79.3-1.53Z" transform="translate(-10.72 -7.54)" fill="#d0af88"/><path d="M62.23,25.22a7.58,7.58,0,0,1,.59-1.48c.54-1.18.44-1.43-.89-2.47l-1.43-1.18,1.88,0c1,0,1.83-.2,1.83-.44a9,9,0,0,1,.54-1.88l.54-1.38.64,1.73c.49,1.48.84,1.78,2.42,2l1.88.25-1.58.89c-1.53.94-1.58,1.14-.59,3.8.25.59,0,.59-1-.15-1.58-1-2.52-1.09-3.31-.1-.59.69-1.48,1-1.48.49Z" transform="translate(-10.72 -7.54)" fill="#d0af88"/><path d="M91.45,25c1-2.62.94-2.81-.69-3.9l-1.63-1H91c1.63,0,1.92-.2,2.37-1.48.3-.79.69-1.48.89-1.48s.59.69.89,1.48C95.6,19.79,96,20,97.38,20l1.63,0-1.38,1.14c-1.23,1-1.33,1.23-.84,2.52.64,1.73.3,2.12-.89,1.09s-1.78-1-3.41,0c-1.09.74-1.28.74-1,.15Z" transform="translate(-10.72 -7.54)" fill="#d0af88"/><path d="M75.71,24c1-3.65,1-3.8-.94-5.13l-1.92-1.28h5l.74-2.32.74-2.37.74,2.22c.74,2.12.84,2.22,3.06,2.47l2.32.25L83.65,19c-1.33.94-1.68,1.43-1.48,2.22.15.59.44,1.58.59,2.17.35,1.18.35,1.18-1.18.39a6.73,6.73,0,0,1-1.83-1.28c-.2-.3-1.14.15-2.32,1.09-2,1.58-2,1.58-1.73.39Z" transform="translate(-10.72 -7.54)" fill="#d0af88"/><path d="M186,53.83c0-8.13.05-9.64-.11-11.42s-.54-2.69-2.32-3.07a7.68,7.68,0,0,0-2.1-.16c-.59,0-.92-.16-.92-.48s.38-.48,1.18-.48c2.91,0,6.19.16,7.32.16,2.64,0,4.69-.16,6.57-.16,9.69,0,11.47,5.22,11.47,8.08,0,4.42-2.48,7.11-5.49,9.42,4.42,1.56,9.8,5.33,9.8,11.63,0,5.76-4.47,11.74-14.38,11.74-2.53,0-5-.32-7.81-.32-2.15,0-4.36.16-6.78.16-.7,0-1.08-.16-1.08-.54s.27-.43.86-.43a7.25,7.25,0,0,0,2-.27c1-.38,1.24-1.35,1.45-2.91.27-2.32.27-6.52.27-11.47Zm6.46.92c0,.43.16.54.38.59a13.18,13.18,0,0,0,2.53.16c1.78,0,3-.22,3.88-1,1.45-1.18,2.21-3.07,2.21-5.71,0-3.61-2.15-8.35-6.73-8.35a6,6,0,0,0-1.78.11c-.32.11-.48.43-.48.92Zm0,7.32v8.78c0,3.55.16,4.47,1.88,5.17a9.7,9.7,0,0,0,3.93.65c2.42,0,6.52-1.29,6.52-6.89a12.89,12.89,0,0,0-5.22-10.72,8.16,8.16,0,0,0-4.47-1.29c-1-.05-1.51-.05-2.32-.05-.22,0-.32.11-.32.38Z" transform="translate(-10.72 -7.54)" fill="#d0af88"/><path d="M225.71,64.49c0,6.41,1.33,9.11,3.45,10.87a8.12,8.12,0,0,0,5.53,1.81,8.66,8.66,0,0,0,6.1-2.39c2.43-2.43,2.56-6.41,2.56-11V58.3c0-6.67,0-7.91-.09-9.37s-.44-2.21-1.9-2.52a6,6,0,0,0-1.59-.13c-.49,0-.75-.13-.75-.4s.31-.4.93-.4c2.25,0,5,.13,5.08.13.49,0,3.27-.13,5-.13q.93,0,.93.4t-.8.4a4.38,4.38,0,0,0-1.28.13c-1.19.22-1.5,1-1.64,2.52s-.09,2.7-.09,9.37V63c0,5-.49,10.08-4.2,13.31a13.26,13.26,0,0,1-9.19,3.18c-2.34,0-6.63-.09-9.81-3.05-2.3-2-3.93-5.3-3.93-11.71V58.3c0-6.67,0-7.91-.09-9.37s-.44-2.21-1.9-2.52a6.32,6.32,0,0,0-1.72-.13c-.49,0-.75-.13-.75-.4s.31-.4,1-.4c2.34,0,5.08.13,6.45.13,1.1,0,3.8-.13,5.44-.13.66,0,1,.13,1,.4s-.22.4-.71.4a4.37,4.37,0,0,0-1.28.13c-1.19.22-1.5,1-1.64,2.52s-.09,2.7-.09,9.37Z" transform="translate(-10.72 -7.54)" fill="#d0af88"/><path d="M259.17,58.3c0-6.67,0-7.91-.09-9.37s-.44-2.21-1.9-2.52a6.33,6.33,0,0,0-1.72-.13c-.49,0-.75-.13-.75-.4s.31-.4,1-.4c2.34,0,5.13.13,6.37.13s4.15-.13,6.81-.13c5.53,0,12.91,0,17.73,5a15.71,15.71,0,0,1,4.29,11.23,17.56,17.56,0,0,1-4.82,12.33c-2,2.08-6.72,5.22-14.81,5.22-1.59,0-3.36-.13-5.08-.27s-3.23-.27-4.33-.27c-.49,0-1.46,0-2.52,0s-2.17.09-3.05.09c-.57,0-.88-.13-.88-.44s.22-.35.71-.35a5.26,5.26,0,0,0,1.59-.18c.88-.18,1.1-1.15,1.28-2.43.22-1.9.22-5.35.22-9.42Zm5.53,4.86c0,4.73,0,8.09.09,8.93a8.71,8.71,0,0,0,.49,3.36c.57.84,2.25,1.77,5.79,1.77,4.55,0,7.51-.88,10.17-3.18,2.83-2.48,3.71-6.41,3.71-11,0-5.57-2.34-9.28-4.24-11.05-4.07-3.85-9.15-4.42-12.55-4.42a14.51,14.51,0,0,0-2.87.31.85.85,0,0,0-.53.88c0,1.5,0,5.3,0,8.84Z" transform="translate(-10.72 -7.54)" fill="#d0af88"/><path d="M327.83,75.94c0,1.19,0,1.28-.58,1.59-2.83,1.55-7.21,2-10.65,2-10.83,0-20.42-5.13-20.42-17.33a16.53,16.53,0,0,1,7.69-14.46c4.2-2.56,8.22-2.87,11.89-2.87a60.28,60.28,0,0,1,7.82.71,29,29,0,0,0,3.49.49c.53,0,.62.22.62.53a59.6,59.6,0,0,0-.31,7.25c0,.71-.13.93-.49.93s-.4-.18-.44-.57a5.93,5.93,0,0,0-1.5-3.67c-1.28-1.41-4.91-3.45-9.86-3.45-2.43,0-5.7.13-8.75,2.74-2.48,2.08-4.07,5.35-4.07,10.83,0,9.5,6,16.62,15.38,16.62a9.67,9.67,0,0,0,3.76-.49,1.57,1.57,0,0,0,.84-1.64V71c0-2.25,0-3.85,0-5.22,0-1.55-.44-2.21-1.9-2.52a6.31,6.31,0,0,0-1.72-.13c-.44,0-.66-.13-.66-.35s.31-.44.93-.44c2.25,0,5.08.13,6.41.13s3.76-.13,5.17-.13c.58,0,.88.13.88.44s-.18.35-.58.35a4.24,4.24,0,0,0-1.19.13c-1.19.22-1.64,1-1.68,2.52,0,1.37,0,3,0,5.3Z" transform="translate(-10.72 -7.54)" fill="#d0af88"/><path d="M339.81,58.3c0-6.67,0-7.91-.09-9.37s-.44-2.21-1.9-2.52a6.33,6.33,0,0,0-1.72-.13c-.49,0-.75-.13-.75-.4s.31-.4,1-.4c2.08,0,4.07.13,6.37.13l11.05,0a17.78,17.78,0,0,0,1.9-.27,4.11,4.11,0,0,1,.71-.18q.27,0,.26.4a26.26,26.26,0,0,0-.35,2.87,22.12,22.12,0,0,1-.22,2.92c0,.22-.13.49-.44.49s-.4-.27-.4-.8a4.37,4.37,0,0,0-.27-1.41c-.31-.75-.79-1.28-3-1.59-.71-.13-5.44-.18-6.28-.18-.22,0-.31.13-.31.44V59.45c0,.31.09.49.31.49,1,0,6,0,7.07-.09s1.72-.18,2.12-.66.58-.57.71-.57.31.13.31.35-.18,1-.35,3.23c0,.88-.18,2.61-.18,3s0,.84-.4.84-.4-.49-.4-.71A7.33,7.33,0,0,0,354.4,64c-.22-.88-.84-1.55-2.48-1.72-.84-.13-5.22-.13-6.28-.13-.18,0-.27.13-.27.44V72.93c.13,3.05.8,3.71,5.3,3.71a11.22,11.22,0,0,0,4.16-.53c1.19-.53,1.68-1.46,2-3.27.09-.44.26-.66.49-.66s.35.31.35.8a28.64,28.64,0,0,1-.58,4.91c-.35,1.15-.66,1.15-2.39,1.15-3.93,0-7.82-.27-12.24-.27-1.77,0-3.58.13-5.57.13-.57,0-.88-.13-.88-.44s.22-.35.71-.35a5.26,5.26,0,0,0,1.59-.18c.88-.18,1.1-1.15,1.28-2.43.22-1.9.22-5.35.22-9.42Z" transform="translate(-10.72 -7.54)" fill="#d0af88"/><path d="M378.63,66.08c0,4.07,0,7.56.22,9.46.13,1.24.35,2.21,1.72,2.39a12.9,12.9,0,0,0,2.25.18c.49,0,.71.13.71.35s-.26.44-.84.44c-3,0-5.7-.13-6.94-.13-1.06,0-3.76.13-5.57.13-.57,0-.88-.13-.88-.44s.22-.35.71-.35a5.26,5.26,0,0,0,1.59-.18c.88-.18,1.15-1.15,1.28-2.43.22-1.9.22-5.35.22-9.42V48l-6.59.18c-2.61.13-3.62.27-4.29,1.28a5.24,5.24,0,0,0-.75,1.55c-.09.35-.27.53-.49.53s-.4-.22-.4-.71a45.76,45.76,0,0,1,.93-5.08c.13-.57.31-.84.53-.84a16.09,16.09,0,0,0,1.9.53c1.28.13,3,.22,4.42.22h17.5a16.22,16.22,0,0,0,3.05-.22,10.58,10.58,0,0,1,1.19-.22c.22,0,.35.31.35.93,0,1-.13,3.93-.13,5.13,0,.49-.18.71-.4.71s-.44-.31-.49-.88c0-.13,0-.35,0-.49-.13-1.19-1.28-2.34-5.22-2.48L378.63,48Z" transform="translate(-10.72 -7.54)" fill="#d0af88"/><path d="M423,63.31c0,6.95,0,10.55,1.13,11.58.86.86,2.37,1.18,6.52,1.18,2.85,0,5-.05,6.3-1.51a7.32,7.32,0,0,0,1.4-3.23c.05-.48.16-.81.59-.81.27,0,.43.32.43.92a41.61,41.61,0,0,1-.81,6.19c-.32,1.18-.65,1.45-3.39,1.45-5,0-9.85-.32-15.67-.32-2.15,0-4.36.16-6.79.16-.7,0-1.08-.16-1.08-.54s.27-.43.86-.43a6.41,6.41,0,0,0,1.94-.22c1.08-.22,1.35-1.4,1.56-3,.27-2.32.27-6.52.27-11.47V53.83c0-8.13.05-9.64-.11-11.42s-.54-2.69-2.32-3.07a7.68,7.68,0,0,0-1.78-.16c-.59,0-.92-.16-.92-.48s.38-.48,1.18-.48c2.53,0,5.92.16,7.38.16s5.22-.16,7.32-.16q1.13,0,1.13.48t-1,.48a9.45,9.45,0,0,0-2.1.16c-1.45.27-1.83,1.18-2,3.07S423,45.7,423,53.83Z" transform="translate(-10.72 -7.54)" fill="#d0af88"/><path d="M449,67.36c-.18,0-.31.13-.4.35L446.24,74a7.5,7.5,0,0,0-.66,2.7c0,.84.4,1.37,1.77,1.37H448c.53,0,.66,0,.66.35s-.27.44-.75.44c-1.42,0-3.32-.13-4.69-.13-.44,0-3,.13-5.22.13-.57,0-.84-.13-.84-.44s.22-.35.62-.35a11.61,11.61,0,0,0,1.28-.09c2.08-.31,2.87-1.72,3.76-4l11.1-27.76c.53-1.28.84-1.77,1.24-1.77s.71.49,1.11,1.41c1.06,2.43,8.13,20.47,11,27.19,1.63,4,3,4.6,3.89,4.82a9.68,9.68,0,0,0,1.86.18c.4,0,.58.13.58.35s-.4.44-2,.44-5.08,0-8.66-.09c-.84,0-1,0-1-.35s.22-.35.62-.4a.74.74,0,0,0,.4-1l-3.54-9.37a.42.42,0,0,0-.44-.31Zm9-2.21c.22,0,.27-.09.22-.27l-4-10.92c-.13-.4-.31-.53-.49,0l-4.07,10.87c0,.22,0,.31.18.31Z" transform="translate(-10.72 -7.54)" fill="#d0af88"/><path d="M472,49.81c-.53-1.64-1-2.65-1.64-3.14a3.92,3.92,0,0,0-1.77-.4c-.49,0-.71,0-.71-.4s.31-.4,1-.4c2.25,0,4.77.13,5.13.13s2.3-.13,4.91-.13q.93,0,.93.4c0,.35-.31.4-.8.4a2.33,2.33,0,0,0-1.1.18,1,1,0,0,0-.49,1,29,29,0,0,0,1,4.07c.71,3,4.82,16.36,5.7,19l8.66-23.21c.49-1.24.75-1.59,1.1-1.59s.71.66,1.28,2.08l9.28,22.41c.84-3.09,4.33-14.85,5.92-20a9.14,9.14,0,0,0,.44-2.56c0-.71-.4-1.33-2.12-1.33-.49,0-.75-.13-.75-.4s.35-.4,1-.4c2.34,0,4.2.13,4.6.13s2.25-.13,3.67-.13c.53,0,.79.13.79.35s-.22.44-.62.44a4.69,4.69,0,0,0-1.55.22c-1.06.4-1.55,2.17-2.47,4.69-1.9,5.57-6.72,19.63-8.84,26.26-.49,1.55-.71,2.08-1.28,2.08s-.71-.53-1.37-2.17l-9.24-22.28c-.88,2.34-6.72,18.08-8.66,22.1-.84,1.81-1.06,2.34-1.59,2.34s-.62-.44-1-1.64Z" transform="translate(-10.72 -7.54)" fill="#d0af88"/><path d="M230,111a3.09,3.09,0,0,0-.33-1.53c-.12-.25-2-3.42-2.56-4.19a3.56,3.56,0,0,0-1-1.06,1.47,1.47,0,0,0-.61-.19c-.12,0-.22,0-.22-.13s.09-.13.28-.13,1.35,0,1.83,0c.31,0,.9,0,1.56,0,.15,0,.22,0,.22.13s-.1.1-.32.16a.27.27,0,0,0-.2.26,1.44,1.44,0,0,0,.17.5c.17.45,2.24,3.94,2.47,4.35.12-.35,2-3.57,2.18-4a2,2,0,0,0,.2-.76.34.34,0,0,0-.31-.36c-.13,0-.26,0-.26-.15s.09-.13.25-.13c.48,0,.95,0,1.37,0l1.56,0c.17,0,.26,0,.26.12s-.09.15-.28.15a1.52,1.52,0,0,0-.64.17,2.45,2.45,0,0,0-.79.71,42.33,42.33,0,0,0-2.78,4.63,3.49,3.49,0,0,0-.22,1.46v1.19c0,.23,0,.83,0,1.46,0,.42.15.74.6.8a4.16,4.16,0,0,0,.73.06c.16,0,.23,0,.23.12s-.1.15-.31.15c-.92,0-1.83,0-2.23,0s-1.3,0-1.82,0c-.22,0-.32,0-.32-.15s.07-.12.23-.12a1.66,1.66,0,0,0,.51-.06c.29-.06.41-.38.45-.8,0-.63,0-1.22,0-1.46Z" transform="translate(-10.72 -7.54)" fill="#d0af88"/><path d="M235.73,110.14c0-2.18,1.44-4.86,5.28-4.86,3.2,0,5.15,2,5.15,4.63A4.93,4.93,0,0,1,240.9,115,4.78,4.78,0,0,1,235.73,110.14Zm8.54.23c0-2.63-1.5-4.44-3.64-4.44-1.44,0-3,.71-3,3.79,0,2.53,1.4,4.57,3.8,4.57C242.3,114.28,244.28,113.92,244.28,110.37Z" transform="translate(-10.72 -7.54)" fill="#d0af88"/><path d="M250.55,110.79c0,1.79.35,2.52,1,3a2.41,2.41,0,0,0,1.53.47,2.46,2.46,0,0,0,1.7-.63c.71-.67.73-1.8.73-3.09V109c0-1.85,0-2.17,0-2.56s-.1-.63-.52-.7a1.91,1.91,0,0,0-.47-.06c-.15,0-.22,0-.22-.13s.09-.13.28-.13c.65,0,1.47,0,1.51,0s1,0,1.5,0c.19,0,.28,0,.28.13s-.07.13-.23.13a1.69,1.69,0,0,0-.38.06c-.33.06-.41.23-.45.68s0,.71,0,2.58v1.31c0,1.4-.13,2.85-1.24,3.75a3.87,3.87,0,0,1-2.66.87,4.32,4.32,0,0,1-2.88-.86c-.67-.54-1.15-1.47-1.15-3.26V109c0-1.91,0-2.17,0-2.59s-.12-.57-.51-.67a2.59,2.59,0,0,0-.52-.06c-.16,0-.23,0-.23-.15s.1-.12.31-.12c.66,0,1.54,0,1.88,0s1.22,0,1.67,0c.19,0,.29,0,.29.13s-.07.13-.22.13a2,2,0,0,0-.38.06c-.35.06-.45.28-.47.7s0,.76,0,2.56Z" transform="translate(-10.72 -7.54)" fill="#d0af88"/><path d="M260.14,109c0-1.89,0-2.17,0-2.56s-.15-.63-.54-.7a2.85,2.85,0,0,0-.49-.06c-.15,0-.22,0-.22-.13s.09-.13.28-.13c.65,0,1.54,0,1.79,0l1.86,0a4.4,4.4,0,0,1,2.39.51,2.17,2.17,0,0,1,.95,1.73c0,.93-.44,1.76-1.7,2.71,1.09,1.34,2,2.49,2.74,3.26a2.43,2.43,0,0,0,1.41.86l.33,0c.12,0,.17,0,.17.12s-.09.15-.25.15h-1.22a3,3,0,0,1-1.57-.28,5.9,5.9,0,0,1-1.66-1.76c-.54-.73-1.06-1.49-1.25-1.72a.26.26,0,0,0-.2-.07l-1,0c-.07,0-.1,0-.1.1v.26c0,1.12,0,2,.06,2.49s.12.64.51.68a4.47,4.47,0,0,0,.61.06c.1,0,.16,0,.16.12s-.09.15-.25.15c-.79,0-1.78,0-2,0s-1.11,0-1.62,0c-.16,0-.25,0-.25-.13s0-.13.2-.13a2.07,2.07,0,0,0,.47,0c.25-.06.32-.31.36-.7a23.73,23.73,0,0,0,.07-2.59Zm1.65.95a.2.2,0,0,0,.12.2,3,3,0,0,0,1,.15,1.31,1.31,0,0,0,.89-.22,2.09,2.09,0,0,0,.71-1.79,2,2,0,0,0-1.94-2.23,2.14,2.14,0,0,0-.66.06.17.17,0,0,0-.1.17Z" transform="translate(-10.72 -7.54)" fill="#d0af88"/><path d="M274.36,109c0-1.85,0-2.17,0-2.56s-.13-.65-.55-.71l-.48,0c-.16,0-.23,0-.23-.15s.09-.12.28-.12c.7,0,1.47,0,1.8,0,.68,0,1.21,0,1.66,0,2.37,0,2.82,1.19,2.82,1.86a2.53,2.53,0,0,1-1.35,2.13,3.06,3.06,0,0,1,2.36,2.69c0,1.34-1.12,2.71-3.51,2.71-.57,0-1.33-.07-2-.07s-1,0-1.67,0c-.16,0-.25,0-.25-.13s0-.13.22-.13a2,2,0,0,0,.45,0c.23-.06.32-.26.36-.66a26.07,26.07,0,0,0,.07-2.69Zm1.66.19c0,.09,0,.13.1.13a3.21,3.21,0,0,0,.64,0,1.31,1.31,0,0,0,.9-.23,1.47,1.47,0,0,0,.5-1.27,1.71,1.71,0,0,0-1.59-1.88,1.21,1.21,0,0,0-.42,0c-.1,0-.13.06-.13.22Zm0,1.75c0,.58,0,1.37,0,2s0,.95.42,1.11a2.37,2.37,0,0,0,.92.15,1.43,1.43,0,0,0,1.53-1.56,2.63,2.63,0,0,0-1.14-2.36,2.06,2.06,0,0,0-1.09-.32h-.58s-.07,0-.07.09Z" transform="translate(-10.72 -7.54)" fill="#d0af88"/><path d="M284.78,110.79c0,1.79.35,2.52,1,3a2.41,2.41,0,0,0,1.53.47,2.46,2.46,0,0,0,1.7-.63c.71-.67.73-1.8.73-3.09V109c0-1.85,0-2.17,0-2.56s-.1-.63-.52-.7a1.91,1.91,0,0,0-.47-.06c-.15,0-.22,0-.22-.13s.09-.13.28-.13c.66,0,1.47,0,1.51,0s1,0,1.5,0c.19,0,.28,0,.28.13s-.07.13-.23.13a1.68,1.68,0,0,0-.38.06c-.33.06-.41.23-.45.68s0,.71,0,2.58v1.31c0,1.4-.13,2.85-1.24,3.75A3.87,3.87,0,0,1,287,115a4.32,4.32,0,0,1-2.88-.86c-.67-.54-1.15-1.47-1.15-3.26V109c0-1.91,0-2.17,0-2.59s-.12-.57-.51-.67a2.59,2.59,0,0,0-.52-.06c-.16,0-.23,0-.23-.15s.1-.12.31-.12c.66,0,1.54,0,1.88,0s1.22,0,1.67,0c.19,0,.29,0,.29.13s-.07.13-.22.13a2,2,0,0,0-.38.06c-.35.06-.45.28-.47.7s0,.76,0,2.56Z" transform="translate(-10.72 -7.54)" fill="#d0af88"/><path d="M293.33,114.65c-.22-.1-.25-.17-.25-.42,0-.74,0-1.47.06-1.69s.07-.32.16-.32.13.1.15.2a2.37,2.37,0,0,0,.09.58,1.85,1.85,0,0,0,1.89,1.34c1.17,0,1.69-.71,1.69-1.35s-.16-1.15-1.25-1.92l-.61-.47c-1.44-1.09-1.91-1.92-1.91-2.94,0-1.35,1.18-2.39,3-2.39a7,7,0,0,1,1.3.13,4.87,4.87,0,0,0,.52.09c.1,0,.15.06.15.16s-.06.57-.06,1.54c0,.25,0,.38-.15.38s-.13-.09-.15-.25a1.88,1.88,0,0,0-.29-.79,1.58,1.58,0,0,0-1.46-.66c-1,0-1.51.52-1.51,1.24,0,.54.26,1,1.31,1.73l.41.28c1.63,1.12,2.15,2,2.15,3.14a2.53,2.53,0,0,1-1.25,2.2,4,4,0,0,1-2.07.5A4.75,4.75,0,0,1,293.33,114.65Z" transform="translate(-10.72 -7.54)" fill="#d0af88"/><path d="M301.27,109c0-1.91,0-2.17,0-2.59s-.17-.61-.44-.67a2.1,2.1,0,0,0-.45-.06c-.13,0-.2,0-.2-.15s.1-.12.29-.12c.51,0,1.38,0,1.7,0s1.15,0,1.64,0c.16,0,.25,0,.25.12s-.07.15-.2.15a1.5,1.5,0,0,0-.33,0c-.35.06-.44.28-.48.7a25.58,25.58,0,0,0,0,2.58v2.18c0,1.16,0,2.11.07,2.63,0,.33.12.6.51.64a3.65,3.65,0,0,0,.55.06c.16,0,.22.07.22.13s-.09.13-.25.13c-.87,0-1.69,0-2,0s-1.12,0-1.63,0c-.17,0-.26,0-.26-.13s.06-.13.22-.13a1.5,1.5,0,0,0,.39,0c.23-.06.36-.26.39-.63a25,25,0,0,0,.07-2.66Z" transform="translate(-10.72 -7.54)" fill="#d0af88"/><path d="M307,105.7c0-.31.06-.45.19-.45s.25.15.47.36,1.92,2,4,3.92c.95.9,2.58,2.58,2.81,2.77l-.12-5.39c0-.74-.12-1-.47-1.12a3.44,3.44,0,0,0-.65-.07c-.15,0-.22,0-.22-.15s.15-.12.32-.12c.64,0,1.28,0,1.62,0,.16,0,.67,0,1.29,0,.19,0,.28,0,.28.13s-.07.13-.22.13a1.55,1.55,0,0,0-.36,0c-.39.1-.5.35-.51,1-.07,1.86-.09,5.09-.13,7.7,0,.33-.07.45-.19.45s-.35-.16-.63-.41c-.82-.74-2.37-2.24-3.58-3.41s-2.69-2.71-3.06-3.07l.13,5.05c0,.95.16,1.24.44,1.34a2.78,2.78,0,0,0,.68.09c.15,0,.22,0,.22.12s-.1.15-.29.15c-.76,0-1.27,0-1.6,0-.16,0-.83,0-1.46,0-.16,0-.28,0-.28-.13s.07-.13.2-.13a3.87,3.87,0,0,0,.55-.06c.35-.12.44-.41.44-1.5C306.91,110.38,307,107.31,307,105.7Z" transform="translate(-10.72 -7.54)" fill="#d0af88"/><path d="M319.17,109c0-1.91,0-2.21,0-2.63s-.13-.55-.52-.66a2.39,2.39,0,0,0-.5,0c-.15,0-.22,0-.22-.13s.1-.12.29-.12c.63,0,1.19,0,1.83,0h3.29c.25,0,.47-.06.58-.07a1.44,1.44,0,0,1,.2-.06c.06,0,.09,0,.09.12s-.07.26-.12.79c0,.23,0,.47-.06.86,0,.07,0,.2-.15.2s-.12-.07-.13-.23a1,1,0,0,0-.07-.41c-.07-.23-.22-.36-.83-.44-.23,0-1.59-.06-1.85-.06-.06,0-.09,0-.09.13v3c0,.09,0,.13.09.13h2c.36,0,.55-.07.67-.2s.15-.16.2-.16.09,0,.09.1-.06.36-.1,1c0,.25,0,.77,0,.87s0,.23-.13.23-.13-.13-.13-.2a1.62,1.62,0,0,0,0-.33c-.07-.28-.22-.47-.73-.51-.26,0-1.48,0-1.8,0-.06,0-.09,0-.09.13V113c0,.86.2,1,1.56,1a3.06,3.06,0,0,0,1.19-.15c.33-.16.48-.41.58-.93,0-.13.09-.2.16-.2s.1.12.1.25a8.63,8.63,0,0,1-.17,1.46c-.07.31-.22.32-.68.32-1.28,0-2.36-.07-3.65-.07-.52,0-1,0-1.66,0-.17,0-.26,0-.26-.13s0-.13.22-.13a2,2,0,0,0,.45,0c.28-.06.33-.32.38-.77s.06-1.46.06-2.52Z" transform="translate(-10.72 -7.54)" fill="#d0af88"/><path d="M326.62,114.65c-.22-.1-.25-.17-.25-.42,0-.74,0-1.47.06-1.69s.07-.32.16-.32.13.1.15.2a2.37,2.37,0,0,0,.09.58,1.85,1.85,0,0,0,1.89,1.34c1.17,0,1.69-.71,1.69-1.35s-.16-1.15-1.25-1.92l-.61-.47c-1.44-1.09-1.91-1.92-1.91-2.94,0-1.35,1.18-2.39,3-2.39a7,7,0,0,1,1.3.13,4.87,4.87,0,0,0,.52.09c.1,0,.15.06.15.16s-.06.57-.06,1.54c0,.25,0,.38-.15.38s-.13-.09-.15-.25a1.88,1.88,0,0,0-.29-.79,1.58,1.58,0,0,0-1.46-.66c-1,0-1.51.52-1.51,1.24,0,.54.26,1,1.31,1.73l.41.28c1.63,1.12,2.15,2,2.15,3.14a2.53,2.53,0,0,1-1.25,2.2,4,4,0,0,1-2.07.5A4.75,4.75,0,0,1,326.62,114.65Z" transform="translate(-10.72 -7.54)" fill="#d0af88"/><path d="M333.75,114.65c-.22-.1-.25-.17-.25-.42,0-.74,0-1.47.06-1.69s.07-.32.16-.32.13.1.15.2a2.37,2.37,0,0,0,.09.58,1.85,1.85,0,0,0,1.89,1.34c1.17,0,1.69-.71,1.69-1.35s-.16-1.15-1.25-1.92l-.61-.47c-1.44-1.09-1.91-1.92-1.91-2.94,0-1.35,1.18-2.39,3-2.39a7,7,0,0,1,1.3.13,4.87,4.87,0,0,0,.52.09c.1,0,.15.06.15.16s-.06.57-.06,1.54c0,.25,0,.38-.15.38s-.13-.09-.15-.25a1.88,1.88,0,0,0-.29-.79,1.58,1.58,0,0,0-1.46-.66c-1,0-1.51.52-1.51,1.24,0,.54.26,1,1.31,1.73l.41.28c1.63,1.12,2.15,2,2.15,3.14a2.53,2.53,0,0,1-1.25,2.2,4,4,0,0,1-2.07.5A4.75,4.75,0,0,1,333.75,114.65Z" transform="translate(-10.72 -7.54)" fill="#d0af88"/><path d="M341.84,112.76c.28,0,.7.74.7,1.28a4.11,4.11,0,0,1-1.46,2.74,1.21,1.21,0,0,1-.48.35.08.08,0,0,1-.09-.09c0-.07.15-.25.19-.31a2.57,2.57,0,0,0,.74-1.69,1.78,1.78,0,0,0-.6-1,.49.49,0,0,1-.16-.23A1.36,1.36,0,0,1,341.84,112.76Z" transform="translate(-10.72 -7.54)" fill="#d0af88"/><path d="M348.61,110.14c0-2.18,1.44-4.86,5.28-4.86,3.2,0,5.15,2,5.15,4.63a4.93,4.93,0,0,1-5.27,5.07A4.78,4.78,0,0,1,348.61,110.14Zm8.54.23c0-2.63-1.5-4.44-3.64-4.44-1.44,0-3,.71-3,3.79,0,2.53,1.4,4.57,3.8,4.57C355.17,114.28,357.15,113.92,357.15,110.37Z" transform="translate(-10.72 -7.54)" fill="#d0af88"/><path d="M363.42,110.79c0,1.79.35,2.52,1,3a2.41,2.41,0,0,0,1.53.47,2.46,2.46,0,0,0,1.7-.63c.71-.67.73-1.8.73-3.09V109c0-1.85,0-2.17,0-2.56s-.1-.63-.52-.7a1.91,1.91,0,0,0-.47-.06c-.15,0-.22,0-.22-.13s.09-.13.28-.13c.66,0,1.47,0,1.51,0s1,0,1.5,0c.19,0,.28,0,.28.13s-.07.13-.23.13a1.68,1.68,0,0,0-.38.06c-.33.06-.41.23-.45.68s0,.71,0,2.58v1.31c0,1.4-.13,2.85-1.24,3.75a3.87,3.87,0,0,1-2.66.87,4.32,4.32,0,0,1-2.88-.86c-.67-.54-1.15-1.47-1.15-3.26V109c0-1.91,0-2.17,0-2.59s-.12-.57-.51-.67a2.59,2.59,0,0,0-.52-.06c-.16,0-.23,0-.23-.15s.1-.12.31-.12c.66,0,1.54,0,1.88,0s1.22,0,1.67,0c.19,0,.29,0,.29.13s-.07.13-.22.13a2,2,0,0,0-.38.06c-.35.06-.45.28-.47.7s0,.76,0,2.56Z" transform="translate(-10.72 -7.54)" fill="#d0af88"/><path d="M373,109c0-1.89,0-2.17,0-2.56s-.15-.63-.54-.7a2.85,2.85,0,0,0-.5-.06c-.15,0-.22,0-.22-.13s.09-.13.28-.13c.66,0,1.54,0,1.79,0l1.86,0A4.41,4.41,0,0,1,378,106a2.17,2.17,0,0,1,.95,1.73c0,.93-.44,1.76-1.7,2.71,1.09,1.34,2,2.49,2.74,3.26a2.44,2.44,0,0,0,1.41.86l.33,0c.12,0,.17,0,.17.12s-.09.15-.25.15h-1.22a3,3,0,0,1-1.57-.28,5.93,5.93,0,0,1-1.66-1.76c-.54-.73-1.06-1.49-1.25-1.72a.26.26,0,0,0-.2-.07l-1,0c-.07,0-.1,0-.1.1v.26c0,1.12,0,2,.06,2.49s.12.64.51.68a4.46,4.46,0,0,0,.61.06c.1,0,.16,0,.16.12s-.09.15-.25.15c-.79,0-1.78,0-2,0s-1.11,0-1.62,0c-.16,0-.25,0-.25-.13s0-.13.2-.13a2.07,2.07,0,0,0,.47,0c.25-.06.32-.31.36-.7a23.88,23.88,0,0,0,.07-2.59Zm1.65.95a.2.2,0,0,0,.12.2,3,3,0,0,0,1,.15,1.31,1.31,0,0,0,.89-.22,2.09,2.09,0,0,0,.71-1.79,2,2,0,0,0-1.94-2.23,2.14,2.14,0,0,0-.66.06.17.17,0,0,0-.1.17Z" transform="translate(-10.72 -7.54)" fill="#d0af88"/><path d="M387.23,109c0-1.79,0-2.18,0-2.59s-.13-.6-.52-.67a2.33,2.33,0,0,0-.51-.06c-.15,0-.22,0-.22-.13s.1-.13.29-.13c.66,0,1.54,0,1.88,0,.54,0,1.28,0,1.88,0a3.26,3.26,0,0,1,2.53.77,2.12,2.12,0,0,1,.63,1.62,3,3,0,0,1-3.23,2.84,2,2,0,0,1-.29,0c-.06,0-.16,0-.16-.15s.12-.12.35-.12a1.89,1.89,0,0,0,1.69-2,2.38,2.38,0,0,0-.68-1.89,2,2,0,0,0-1.31-.45,1.76,1.76,0,0,0-.47,0c-.07,0-.12.1-.12.25v4.88a24.6,24.6,0,0,0,.07,2.61c0,.36.1.63.5.67a4.91,4.91,0,0,0,.63.06c.15,0,.22,0,.22.12s-.07.15-.23.15c-.84,0-1.79,0-2.07,0s-1.16,0-1.67,0c-.16,0-.25,0-.25-.13s.06-.13.22-.13a2.11,2.11,0,0,0,.45,0c.25-.06.32-.31.36-.7a23.88,23.88,0,0,0,.07-2.59Z" transform="translate(-10.72 -7.54)" fill="#d0af88"/><path d="M395.55,109c0-1.89,0-2.17,0-2.56s-.15-.63-.54-.7a2.85,2.85,0,0,0-.5-.06c-.15,0-.22,0-.22-.13s.09-.13.28-.13c.66,0,1.54,0,1.79,0l1.86,0a4.41,4.41,0,0,1,2.39.51,2.17,2.17,0,0,1,.95,1.73c0,.93-.44,1.76-1.7,2.71,1.09,1.34,2,2.49,2.74,3.26a2.44,2.44,0,0,0,1.41.86l.33,0c.12,0,.17,0,.17.12s-.09.15-.25.15H403a3,3,0,0,1-1.57-.28,5.93,5.93,0,0,1-1.66-1.76c-.54-.73-1.06-1.49-1.25-1.72a.26.26,0,0,0-.2-.07l-1,0c-.07,0-.1,0-.1.1v.26c0,1.12,0,2,.06,2.49s.12.64.51.68a4.46,4.46,0,0,0,.61.06c.1,0,.16,0,.16.12s-.09.15-.25.15c-.79,0-1.78,0-2,0s-1.11,0-1.62,0c-.16,0-.25,0-.25-.13s0-.13.2-.13a2.07,2.07,0,0,0,.47,0c.25-.06.32-.31.36-.7a23.88,23.88,0,0,0,.07-2.59Zm1.65.95a.2.2,0,0,0,.12.2,3,3,0,0,0,1,.15,1.31,1.31,0,0,0,.89-.22,2.09,2.09,0,0,0,.71-1.79,2,2,0,0,0-1.94-2.23,2.14,2.14,0,0,0-.66.06.17.17,0,0,0-.1.17Z" transform="translate(-10.72 -7.54)" fill="#d0af88"/><path d="M405.28,109c0-1.91,0-2.17,0-2.59s-.17-.61-.44-.67a2.1,2.1,0,0,0-.45-.06c-.13,0-.2,0-.2-.15s.1-.12.29-.12c.51,0,1.38,0,1.7,0s1.15,0,1.64,0c.16,0,.25,0,.25.12s-.07.15-.2.15a1.5,1.5,0,0,0-.33,0c-.35.06-.44.28-.48.7a25.58,25.58,0,0,0,0,2.58v2.18c0,1.16,0,2.11.07,2.63,0,.33.12.6.51.64a3.65,3.65,0,0,0,.55.06c.16,0,.22.07.22.13s-.09.13-.25.13c-.87,0-1.69,0-2,0s-1.12,0-1.63,0c-.17,0-.26,0-.26-.13s.06-.13.22-.13a1.5,1.5,0,0,0,.39,0c.23-.06.36-.26.39-.63a25,25,0,0,0,.07-2.66Z" transform="translate(-10.72 -7.54)" fill="#d0af88"/><path d="M409.86,110.14c0-2.18,1.44-4.86,5.28-4.86,3.2,0,5.15,2,5.15,4.63A4.93,4.93,0,0,1,415,115,4.78,4.78,0,0,1,409.86,110.14Zm8.54.23c0-2.63-1.5-4.44-3.64-4.44-1.44,0-3,.71-3,3.79,0,2.53,1.4,4.57,3.8,4.57C416.43,114.28,418.41,113.92,418.41,110.37Z" transform="translate(-10.72 -7.54)" fill="#d0af88"/><path d="M423,109c0-1.89,0-2.17,0-2.56s-.15-.63-.54-.7a2.85,2.85,0,0,0-.5-.06c-.15,0-.22,0-.22-.13s.09-.13.28-.13c.66,0,1.54,0,1.79,0l1.86,0a4.41,4.41,0,0,1,2.39.51,2.17,2.17,0,0,1,.95,1.73c0,.93-.44,1.76-1.7,2.71,1.09,1.34,2,2.49,2.74,3.26a2.44,2.44,0,0,0,1.41.86l.33,0c.12,0,.17,0,.17.12s-.09.15-.25.15H430.5a3,3,0,0,1-1.57-.28,5.93,5.93,0,0,1-1.66-1.76c-.54-.73-1.06-1.49-1.25-1.72a.26.26,0,0,0-.2-.07l-1,0c-.07,0-.1,0-.1.1v.26c0,1.12,0,2,.06,2.49s.12.64.51.68a4.46,4.46,0,0,0,.61.06c.1,0,.16,0,.16.12s-.09.15-.25.15c-.79,0-1.78,0-2,0s-1.11,0-1.62,0c-.16,0-.25,0-.25-.13s0-.13.2-.13a2.07,2.07,0,0,0,.47,0c.25-.06.32-.31.36-.7a23.88,23.88,0,0,0,.07-2.59Zm1.65.95a.2.2,0,0,0,.12.2,3,3,0,0,0,1,.15,1.31,1.31,0,0,0,.89-.22,2.09,2.09,0,0,0,.71-1.79,2,2,0,0,0-1.94-2.23,2.14,2.14,0,0,0-.66.06.17.17,0,0,0-.1.17Z" transform="translate(-10.72 -7.54)" fill="#d0af88"/><path d="M432.75,109c0-1.91,0-2.17,0-2.59s-.17-.61-.44-.67a2.1,2.1,0,0,0-.45-.06c-.13,0-.2,0-.2-.15s.1-.12.29-.12c.51,0,1.38,0,1.7,0s1.15,0,1.64,0c.16,0,.25,0,.25.12s-.07.15-.2.15a1.5,1.5,0,0,0-.33,0c-.35.06-.44.28-.48.7a25.58,25.58,0,0,0,0,2.58v2.18c0,1.16,0,2.11.07,2.63,0,.33.12.6.51.64a3.65,3.65,0,0,0,.55.06c.16,0,.22.07.22.13s-.09.13-.25.13c-.87,0-1.69,0-2,0s-1.12,0-1.63,0c-.17,0-.26,0-.26-.13s.06-.13.22-.13a1.5,1.5,0,0,0,.39,0c.23-.06.36-.26.39-.63a25,25,0,0,0,.07-2.66Z" transform="translate(-10.72 -7.54)" fill="#d0af88"/><path d="M442,111.21c0,1.11,0,2.08.06,2.62,0,.33.12.61.51.66a4.46,4.46,0,0,0,.63.06c.15,0,.22,0,.22.12s-.09.15-.26.15c-.86,0-1.72,0-2.05,0s-1.18,0-1.67,0c-.17,0-.26,0-.26-.15s.07-.12.22-.12a1.89,1.89,0,0,0,.44,0c.28-.06.35-.32.39-.68.06-.52.06-1.44.06-2.61v-5c-.48,0-1.44,0-2,0-.74.06-1,.13-1.14.44a1.67,1.67,0,0,0-.17.41c0,.1-.07.15-.15.15s-.12-.07-.12-.22a11.47,11.47,0,0,1,.28-1.46c0-.17.07-.26.15-.26a5.16,5.16,0,0,0,.54.15,11.55,11.55,0,0,0,1.31.07h5.15a4,4,0,0,0,.87-.07,1.68,1.68,0,0,1,.36-.06c.07,0,.1.1.1.29s-.06,1.16-.06,1.47c0,.13-.06.2-.13.2s-.12-.09-.13-.25,0-.1,0-.16c0-.32-.33-.68-1.41-.68-.35,0-.87,0-1.69-.06Z" transform="translate(-10.72 -7.54)" fill="#d0af88"/><path d="M450.45,111.59a2.49,2.49,0,0,0-.31-1.29c-.17-.31-1.78-2.93-2.24-3.57a2.49,2.49,0,0,0-.92-.87,1.57,1.57,0,0,0-.47-.15c-.1,0-.22,0-.22-.13s.07-.13.22-.13,1.29,0,1.72,0c.25,0,.81,0,1.44,0,.13,0,.2,0,.2.12s0,.12-.23.16-.26.1-.26.2a1.07,1.07,0,0,0,.16.41c.16.36,1.91,3.32,2.13,3.65.28-.5,1.72-2.93,1.89-3.35a1.52,1.52,0,0,0,.19-.65c0-.12-.06-.22-.31-.28s-.23-.07-.23-.15.07-.12.23-.12c.45,0,.86,0,1.25,0l1.38,0c.16,0,.25,0,.25.12s-.09.15-.26.15a1.73,1.73,0,0,0-.55.13,1.74,1.74,0,0,0-.68.58,38.31,38.31,0,0,0-2.45,4,3,3,0,0,0-.19,1.22v1c0,.22,0,.7,0,1.21,0,.35.12.64.52.68a4.91,4.91,0,0,0,.64.06c.16,0,.22.07.22.13s-.07.13-.23.13c-.83,0-1.72,0-2.08,0s-1.18,0-1.66,0c-.19,0-.29,0-.29-.13s.07-.12.2-.13a1.77,1.77,0,0,0,.42-.06c.29,0,.42-.31.44-.67,0-.52,0-1,0-1.22Z" transform="translate(-10.72 -7.54)" fill="#d0af88"/><rect x="162.96" y="101.69" width="43.41" height="1.92" fill="#d0af88"/><rect x="453.77" y="101.69" width="43.41" height="1.92" fill="#d0af88"/></svg>